<svg width="21" height="21" viewBox="0 0 21 21"  xmlns="http://www.w3.org/2000/svg">
<path d="M6.27344 11.125H5.6875C5.14062 11.125 4.75 11.5547 4.75 12.0625C4.75 12.6094 5.14062 13 5.64844 13H6.23438C6.74219 13 7.13281 12.6094 7.13281 12.0625C7.13281 11.5547 6.82031 11.125 6.27344 11.125ZM12.5234 11.125H9.39844C8.85156 11.125 8.5 11.5547 8.5 12.0625C8.5 12.6094 8.89062 13 9.39844 13H12.5234C13.0312 13 13.4219 12.6094 13.4219 12.0625C13.4219 11.5547 13.0703 11.125 12.5234 11.125ZM5.64844 9.875H9.39844C9.90625 9.875 10.3359 9.48438 10.3359 8.97656C10.3359 8.50781 9.94531 8 9.39844 8H5.64844C5.14062 8 4.75 8.42969 4.75 8.9375C4.75 9.48438 5.14062 9.875 5.64844 9.875ZM16.2734 11.125H15.6875C15.1406 11.125 14.75 11.5547 14.75 12.0625C14.75 12.6094 15.1406 13 15.6484 13H16.2344C16.7422 13 17.1328 12.6094 17.1328 12.0625C17.1328 11.5547 16.8203 11.125 16.2734 11.125ZM16.2734 8H12.5234C11.9766 8 11.625 8.42969 11.625 8.9375C11.625 9.48438 12.0156 9.875 12.5234 9.875H16.2734C16.7812 9.875 17.1719 9.48438 17.1719 8.9375C17.1719 8.42969 16.8203 8 16.2734 8ZM18.4609 0.5H3.46094C2.05469 0.5 0.960938 1.63281 0.960938 3V14.2109C0.960938 15.5781 2.05469 16.6719 3.46094 16.6719H7.21094V19.9141C7.21094 20.3047 7.64062 20.5 7.95312 20.3047L12.8359 16.6328H18.4609C19.8281 16.6328 20.9609 15.5 20.9609 14.1719V3C20.9609 1.63281 19.8672 0.5 18.4609 0.5ZM19.125 14.25C19.125 14.6016 18.8125 14.875 18.5 14.875H12.25L9.125 17.2188V14.875H3.5C3.14844 14.875 2.875 14.6016 2.875 14.25V3C2.875 2.6875 3.14844 2.375 3.5 2.375H18.5C18.8125 2.375 19.125 2.6875 19.125 3V14.25Z" />
</svg>
