<svg width="14" height="16" viewBox="0 0 14 16" fill="none" xmlns="http://www.w3.org/2000/svg">
<path d="M4.225 0.552813C4.39375 0.214 4.74062 0 5.11875 0H8.88125C9.25937 0 9.60625 0.214 9.775 0.552813L10 1H13C13.5531 1 14 1.44781 14 2C14 2.55219 13.5531 3 13 3H1C0.447812 3 0 2.55219 0 2C0 1.44781 0.447812 1 1 1H4L4.225 0.552813ZM0.971875 4H13V14C13 15.1031 12.1031 16 11 16H2.97187C1.89531 16 0.971875 15.1031 0.971875 14V4ZM3.47187 6.5V13.5C3.47187 13.775 3.725 14 3.97187 14C4.275 14 4.47187 13.775 4.47187 13.5V6.5C4.47187 6.225 4.275 6 3.97187 6C3.725 6 3.47187 6.225 3.47187 6.5ZM6.47187 6.5V13.5C6.47187 13.775 6.725 14 6.97187 14C7.275 14 7.5 13.775 7.5 13.5V6.5C7.5 6.225 7.275 6 6.97187 6C6.725 6 6.47187 6.225 6.47187 6.5ZM9.5 6.5V13.5C9.5 13.775 9.725 14 10 14C10.275 14 10.5 13.775 10.5 13.5V6.5C10.5 6.225 10.275 6 10 6C9.725 6 9.5 6.225 9.5 6.5Z" fill="black"/>
</svg>
