<svg width="19" height="21" viewBox="0 0 19 21" fill="none" xmlns="http://www.w3.org/2000/svg">
<path d="M10.5833 1.75V2.45312C13.3958 2.92188 15.5833 5.38281 15.5833 8.3125V9.64062C15.5833 11.3984 16.1693 13.1172 17.263 14.5234L17.849 15.2266C18.0833 15.5391 18.1224 15.9297 17.9661 16.2422C17.8099 16.5547 17.4974 16.75 17.1458 16.75H1.52083C1.13021 16.75 0.817708 16.5547 0.661458 16.2422C0.505208 15.9297 0.544271 15.5391 0.778646 15.2266L1.36458 14.5234C2.45833 13.1172 3.08333 11.3984 3.08333 9.64062V8.3125C3.08333 5.38281 5.23177 2.92188 8.08333 2.45312V1.75C8.08333 1.08594 8.63021 0.5 9.33333 0.5C9.9974 0.5 10.5833 1.08594 10.5833 1.75ZM9.02083 4.25C6.75521 4.25 4.95833 6.08594 4.95833 8.3125V9.64062C4.95833 11.5156 4.41146 13.3125 3.39583 14.875H15.2318C14.2161 13.3125 13.7083 11.5156 13.7083 9.64062V8.3125C13.7083 6.08594 11.8724 4.25 9.64583 4.25H9.02083ZM11.8333 18C11.8333 18.6641 11.5599 19.3281 11.0911 19.7969C10.6224 20.2656 9.95833 20.5 9.33333 20.5C8.66927 20.5 8.00521 20.2656 7.53646 19.7969C7.06771 19.3281 6.83333 18.6641 6.83333 18H11.8333Z" fill="black"/>
</svg>
