<svg width="16" height="16" viewBox="0 0 16 16" fill="none" xmlns="http://www.w3.org/2000/svg">
<path d="M15.3219 1.26247C16.0063 1.94591 16.0063 3.05403 15.3219 3.73747L14.3844 4.67809L11.3219 1.61622L12.2625 0.676845C12.9469 -0.00670218 14.0531 -0.00670218 14.7375 0.676845L15.3219 1.26247ZM5.3875 7.55309L10.6156 2.32309L13.6781 5.38435L8.44688 10.6125C8.25625 10.8062 8.02188 10.95 7.7625 11.0375L4.9875 11.9625C4.69063 12.05 4.42188 11.9812 4.21875 11.7531C4.01875 11.5781 3.95 11.2812 4.0375 11.0125L4.9625 8.23747C5.05 7.97809 5.19375 7.74372 5.3875 7.55309ZM6 1.97184C6.55313 1.97184 7 2.44778 7 2.97184C7 3.55309 6.55313 3.97184 6 3.97184H3C2.44781 3.97184 2 4.44685 2 4.97185V13C2 13.5531 2.44781 14 3 14H11C11.5531 14 12 13.5531 12 13V9.97184C12 9.44685 12.4469 8.97184 13 8.97184C13.5531 8.97184 14 9.44685 14 9.97184V13C14 14.6562 12.6563 16 11 16H3C1.34313 16 0 14.6562 0 13V4.97185C0 3.3156 1.34313 1.97184 3 1.97184H6Z" fill="black"/>
</svg>
