<svg width="21" height="16" viewBox="0 0 21 16" fill="none" xmlns="http://www.w3.org/2000/svg">
<path d="M9.98572 4.58571C10.0857 4.575 10.1857 4.57143 10.2857 4.57143C12.1786 4.57143 13.7143 6.075 13.7143 8C13.7143 9.89286 12.1786 11.4286 10.2857 11.4286C8.36072 11.4286 6.85715 9.89286 6.85715 8C6.85715 7.9 6.86072 7.8 6.87143 7.7C7.20358 7.86071 7.58929 8 8 8C9.26072 8 10.2857 6.975 10.2857 5.71429C10.2857 5.30357 10.1464 4.91786 9.98572 4.58571ZM17.1643 2.87857C18.8357 4.42857 19.9536 6.25357 20.4821 7.56071C20.6 7.84286 20.6 8.15714 20.4821 8.43929C19.9536 9.71428 18.8357 11.5393 17.1643 13.1214C15.4821 14.6857 13.1714 16 10.2857 16C7.4 16 5.08929 14.6857 3.40786 13.1214C1.73643 11.5393 0.61929 9.71428 0.0878973 8.43929C-0.0292991 8.15714 -0.0292991 7.84286 0.0878973 7.56071C0.61929 6.25357 1.73643 4.42857 3.40786 2.87857C5.08929 1.31571 7.4 0 10.2857 0C13.1714 0 15.4821 1.31571 17.1643 2.87857ZM10.2857 2.85714C7.44643 2.85714 5.14286 5.16071 5.14286 8C5.14286 10.8393 7.44643 13.1429 10.2857 13.1429C13.125 13.1429 15.4286 10.8393 15.4286 8C15.4286 5.16071 13.125 2.85714 10.2857 2.85714Z" fill="black"/>
</svg>
