<svg width="20" height="20" viewBox="0 0 20 20" fill="none" xmlns="http://www.w3.org/2000/svg">
<path d="M17.4648 0H2.46484C1.08789 0 -0.0351562 1.12305 -0.0351562 2.46484V13.6797C-0.0351562 15.0566 1.08789 16.1445 2.46484 16.1445H6.21484V19.3906C6.21484 19.7715 6.6543 19.9941 6.96172 19.7695L11.8406 16.1094H17.4656C18.8426 16.1094 19.9656 14.9863 19.9656 13.6445V2.46484C19.9648 1.12305 18.875 0 17.4648 0ZM5.27734 12.5H4.6875C4.16797 12.5 3.75 12.082 3.75 11.5625C3.75 11.043 4.16797 10.625 4.65234 10.625H5.24219C5.75977 10.625 6.14453 11.0449 6.14453 11.5625C6.14453 12.0801 5.82812 12.5 5.27734 12.5ZM4.65234 9.375C4.16797 9.375 3.75 8.95703 3.75 8.4375C3.75 7.91797 4.16797 7.5 4.65234 7.5H8.40195C8.91953 7.5 9.3043 7.91992 9.3043 8.4375C9.3043 8.95508 8.95312 9.33984 8.40234 9.33984L4.65234 9.375ZM11.5273 12.5H8.40234C7.88477 12.5 7.5 12.0801 7.5 11.5625C7.5 11.0449 7.91797 10.625 8.40234 10.625H11.527C12.0445 10.625 12.4293 11.0449 12.4293 11.5625C12.4293 12.0801 12.0781 12.5 11.5273 12.5ZM15.2773 12.5H14.6875C14.1699 12.5 13.7852 12.0801 13.7852 11.5625C13.7852 11.0449 14.2051 10.625 14.6875 10.625H15.2773C15.7949 10.625 16.1797 11.0449 16.1797 11.5625C16.1797 12.0801 15.8281 12.5 15.2773 12.5ZM15.2773 9.375H11.5277C11.0102 9.375 10.6254 8.95508 10.6254 8.4375C10.6254 7.91992 11.043 7.5 11.5273 7.5H15.277C15.7945 7.5 16.1793 7.91992 16.1793 8.4375C16.1793 8.95508 15.8281 9.375 15.2773 9.375Z" fill="black"/>
</svg>
