<svg width="25" height="20" viewBox="0 0 25 20" fill="none" xmlns="http://www.w3.org/2000/svg">
<path d="M6.25 0C4.87109 0 3.75 1.12109 3.75 2.5V6.875H2.33203C2.11719 6.5 1.71094 6.25 1.25 6.25C0.558594 6.25 0 6.80859 0 7.5C0 8.19141 0.558594 8.75 1.25 8.75C1.71094 8.75 2.11719 8.5 2.33203 8.125H3.75V13.75C3.75 15.1289 4.87109 16.25 6.25 16.25H8.75V19.375C8.75 19.6133 8.88281 19.8281 9.09375 19.9336C9.30469 20.0391 9.55859 20.0156 9.75 19.875L14.582 16.25H18.75C20.1289 16.25 21.25 15.1289 21.25 13.75V8.125H22.668C22.8828 8.5 23.2891 8.75 23.75 8.75C24.4414 8.75 25 8.19141 25 7.5C25 6.80859 24.4414 6.25 23.75 6.25C23.2891 6.25 22.8828 6.5 22.668 6.875H21.25V2.5C21.25 1.12109 20.1289 0 18.75 0H6.25ZM6.25 5C6.25 4.30859 6.80859 3.75 7.5 3.75H17.5C18.1914 3.75 18.75 4.30859 18.75 5V10C18.75 10.6914 18.1914 11.25 17.5 11.25H7.5C6.80859 11.25 6.25 10.6914 6.25 10V5ZM8.75 8.75C9.44141 8.75 10 8.19141 10 7.5C10 6.80859 9.44141 6.25 8.75 6.25C8.05859 6.25 7.5 6.80859 7.5 7.5C7.5 8.19141 8.05859 8.75 8.75 8.75ZM16.25 8.75C16.9414 8.75 17.5 8.19141 17.5 7.5C17.5 6.80859 16.9414 6.25 16.25 6.25C15.5586 6.25 15 6.80859 15 7.5C15 8.19141 15.5586 8.75 16.25 8.75Z" fill="black"/>
</svg>
