<svg width="26" height="20" viewBox="0 0 26 20" fill="none" xmlns="http://www.w3.org/2000/svg">
<path d="M6.75 0.000488281C5.37109 0.000488281 4.25 1.12158 4.25 2.50049V6.87549H2.83203C2.61719 6.50049 2.21094 6.25049 1.75 6.25049C1.05859 6.25049 0.5 6.80908 0.5 7.50049C0.5 8.19189 1.05859 8.75049 1.75 8.75049C2.21094 8.75049 2.61719 8.50049 2.83203 8.12549H4.25V13.7505C4.25 15.1294 5.37109 16.2505 6.75 16.2505H9.25V19.3755C9.25 19.6138 9.38281 19.8286 9.59375 19.9341C9.80469 20.0396 10.0586 20.0161 10.25 19.8755L15.082 16.2505H19.25C20.6289 16.2505 21.75 15.1294 21.75 13.7505V8.12549H23.168C23.3828 8.50049 23.7891 8.75049 24.25 8.75049C24.9414 8.75049 25.5 8.19189 25.5 7.50049C25.5 6.80908 24.9414 6.25049 24.25 6.25049C23.7891 6.25049 23.3828 6.50049 23.168 6.87549H21.75V2.50049C21.75 1.12158 20.6289 0.000488281 19.25 0.000488281H6.75ZM6.75 5.00049C6.75 4.30908 7.30859 3.75049 8 3.75049H18C18.6914 3.75049 19.25 4.30908 19.25 5.00049V10.0005C19.25 10.6919 18.6914 11.2505 18 11.2505H8C7.30859 11.2505 6.75 10.6919 6.75 10.0005V5.00049ZM9.25 8.75049C9.94141 8.75049 10.5 8.19189 10.5 7.50049C10.5 6.80908 9.94141 6.25049 9.25 6.25049C8.55859 6.25049 8 6.80908 8 7.50049C8 8.19189 8.55859 8.75049 9.25 8.75049ZM16.75 8.75049C17.4414 8.75049 18 8.19189 18 7.50049C18 6.80908 17.4414 6.25049 16.75 6.25049C16.0586 6.25049 15.5 6.80908 15.5 7.50049C15.5 8.19189 16.0586 8.75049 16.75 8.75049Z" fill="white"/>
</svg>
