<svg width="20" height="19" viewBox="0 0 20 19"  xmlns="http://www.w3.org/2000/svg">
<path d="M17.8125 0.75H5.9375C4.72656 0.75 3.75 1.76562 3.75 2.9375V15.4375C3.75 15.9844 3.32031 16.375 2.8125 16.375C2.26562 16.375 1.875 15.9844 1.875 15.4375V3.875C1.875 3.36719 1.44531 2.9375 0.9375 2.9375C0.390625 2.9375 0 3.36719 0 3.875V15.4375C0 17 1.25 18.25 2.8125 18.25H16.5625C18.4375 18.25 20 16.7266 20 14.8125V2.9375C20 1.76562 18.9844 0.75 17.8125 0.75ZM18.125 14.8125C18.125 15.7109 17.4219 16.375 16.5625 16.375H5.42969C5.54688 16.1016 5.625 15.7891 5.625 15.4375V2.9375C5.625 2.78125 5.74219 2.625 5.9375 2.625H17.8125C17.9688 2.625 18.125 2.78125 18.125 2.9375V14.8125ZM10.3125 10.125H7.8125C7.26562 10.125 6.875 10.5547 6.875 11.0625C6.875 11.6094 7.26562 12 7.8125 12H10.3125C10.8203 12 11.25 11.6094 11.25 11.0625C11.25 10.5547 10.8203 10.125 10.3125 10.125ZM15.9375 10.125H13.4375C12.8906 10.125 12.5 10.5547 12.5 11.0625C12.5 11.6094 12.8906 12 13.4375 12H15.9375C16.4453 12 16.875 11.6094 16.875 11.0625C16.875 10.5547 16.4453 10.125 15.9375 10.125ZM10.3125 13.25H7.8125C7.26562 13.25 6.875 13.6797 6.875 14.1875C6.875 14.7344 7.26562 15.125 7.8125 15.125H10.3125C10.8203 15.125 11.25 14.7344 11.25 14.1875C11.25 13.6797 10.8203 13.25 10.3125 13.25ZM15.9375 13.25H13.4375C12.8906 13.25 12.5 13.6797 12.5 14.1875C12.5 14.7344 12.8906 15.125 13.4375 15.125H15.9375C16.4453 15.125 16.875 14.7344 16.875 14.1875C16.875 13.6797 16.4453 13.25 15.9375 13.25ZM15.625 3.875H8.125C7.42188 3.875 6.875 4.46094 6.875 5.125V7.625C6.875 8.32812 7.42188 8.875 8.125 8.875H15.625C16.2891 8.875 16.875 8.32812 16.875 7.625V5.125C16.875 4.46094 16.2891 3.875 15.625 3.875Z" />
</svg>
