<svg width="18" height="19" viewBox="0 0 18 19"  xmlns="http://www.w3.org/2000/svg">
<path d="M9 12.7031C8.29688 12.7031 7.75 13.25 7.75 13.9141C7.75 14.5781 8.29688 15.125 9 15.125C9.66406 15.125 10.2109 14.5781 10.2109 13.9141C10.2109 13.25 9.66406 12.7031 9 12.7031ZM9 11.375C9.50781 11.375 9.9375 10.9844 9.9375 10.4375V5.4375C9.9375 4.92969 9.50781 4.5 9 4.5C8.45312 4.5 8.0625 4.92969 8.0625 5.4375V10.4375C8.0625 10.9844 8.45312 11.375 9 11.375ZM15.25 0.75H2.75C1.34375 0.75 0.25 1.88281 0.25 3.25V15.75C0.25 17.1562 1.34375 18.25 2.75 18.25H15.25C16.6172 18.25 17.75 17.1562 17.75 15.75V3.25C17.75 1.88281 16.6172 0.75 15.25 0.75ZM15.875 15.75C15.875 16.1016 15.5625 16.375 15.25 16.375H2.75C2.39844 16.375 2.125 16.1016 2.125 15.75V3.25C2.125 2.9375 2.39844 2.625 2.75 2.625H15.25C15.5625 2.625 15.875 2.9375 15.875 3.25V15.75Z" fill="black"/>
</svg>
