<svg width="24" height="19" viewBox="0 0 24 19" fill="none" xmlns="http://www.w3.org/2000/svg">
<path d="M0 3.5C0 1.84297 1.34297 0.5 3 0.5H21C22.6547 0.5 24 1.84297 24 3.5V15.5C24 17.1547 22.6547 18.5 21 18.5H3C1.34297 18.5 0 17.1547 0 15.5V3.5ZM1.5 3.5V5.37031L10.6688 12.0922C11.4609 12.6734 12.5391 12.6734 13.3312 12.0922L22.5 5.37031V3.5C22.5 2.67031 21.8297 2 21 2H2.95781C2.17172 2 1.45781 2.67031 1.45781 3.5H1.5ZM1.5 7.23125V15.5C1.5 16.3297 2.17172 17 3 17H21C21.8297 17 22.5 16.3297 22.5 15.5V7.23125L14.2172 13.3016C12.8953 14.2719 11.1047 14.2719 9.78281 13.3016L1.5 7.23125Z" fill="#8F90A6"/>
</svg>
