<svg width="24" height="24" viewBox="0 0 24 24" fill="none" xmlns="http://www.w3.org/2000/svg">
<path d="M0 12C0 5.39062 5.34375 0 12 0C18.6094 0 24 5.39062 24 12C24 18.6562 18.6094 24 12 24C5.34375 24 0 18.6562 0 12ZM12 20.25C15.5625 20.25 18.5625 17.9062 19.4531 14.7656C19.6406 14.1094 19.0781 13.5 18.4219 13.5H5.53125C4.875 13.5 4.3125 14.1094 4.5 14.7656C5.39062 17.9062 8.39062 20.25 12 20.25ZM8.25 7.5C7.40625 7.5 6.75 8.20312 6.75 9C6.75 9.84375 7.40625 10.5 8.25 10.5C9.09375 10.5 9.75 9.84375 9.75 9C9.75 8.20312 9.09375 7.5 8.25 7.5ZM15.75 10.5C16.5938 10.5 17.25 9.84375 17.25 9C17.25 8.20312 16.5938 7.5 15.75 7.5C14.9062 7.5 14.25 8.20312 14.25 9C14.25 9.84375 14.9062 10.5 15.75 10.5Z" fill="black"/>
</svg>
