<svg width="24" height="22" viewBox="0 0 24 22" fill="none" xmlns="http://www.w3.org/2000/svg">
<path d="M0 3.5C0 1.84531 1.34531 0.5 3 0.5H21C22.6547 0.5 24 1.84531 24 3.5V18.5C24 20.1547 22.6547 21.5 21 21.5H3C1.34531 21.5 0 20.1547 0 18.5V3.5ZM15.1781 8.49219C14.9672 8.18281 14.6203 8 14.25 8C13.8797 8 13.5281 8.18281 13.3219 8.49219L9.24375 14.4734L8.00156 12.9219C7.78594 12.6547 7.4625 12.5 7.125 12.5C6.7875 12.5 6.45938 12.6547 6.24844 12.9219L3.24844 16.6719C2.97656 17.0094 2.925 17.4734 3.1125 17.8625C3.3 18.2516 3.69375 18.5 4.125 18.5H8.625H10.125H19.875C20.2922 18.5 20.6766 18.2703 20.8688 17.9C21.0609 17.5297 21.0375 17.0844 20.8031 16.7422L15.1781 8.49219ZM5.25 8C6.49219 8 7.5 6.99219 7.5 5.75C7.5 4.50781 6.49219 3.5 5.25 3.5C4.00781 3.5 3 4.50781 3 5.75C3 6.99219 4.00781 8 5.25 8Z" fill="black"/>
</svg>
