<svg width="24" height="24" viewBox="0 0 24 24" fill="none" xmlns="http://www.w3.org/2000/svg">
<path d="M12 24C18.6281 24 24 18.6281 24 12C24 5.37188 18.6281 0 12 0C5.37188 0 0 5.37188 0 12C0 18.6281 5.37188 24 12 24ZM7.69219 15.2578C8.53125 16.2281 9.96562 17.25 12 17.25C14.0344 17.25 15.4688 16.2281 16.3078 15.2578C16.5797 14.9438 17.0531 14.9109 17.3672 15.1828C17.6812 15.4547 17.7141 15.9281 17.4422 16.2422C16.3969 17.4422 14.5828 18.75 12 18.75C9.41719 18.75 7.60312 17.4422 6.55781 16.2422C6.28594 15.9281 6.31875 15.4547 6.63281 15.1828C6.94688 14.9109 7.42031 14.9438 7.69219 15.2578ZM9.76875 9.75C9.76875 10.5797 9.09844 11.25 8.26875 11.25C7.43906 11.25 6.76875 10.5797 6.76875 9.75C6.76875 8.92031 7.43906 8.25 8.26875 8.25C9.09844 8.25 9.76875 8.92031 9.76875 9.75ZM15.7687 11.25C14.9391 11.25 14.2687 10.5797 14.2687 9.75C14.2687 8.92031 14.9391 8.25 15.7687 8.25C16.5984 8.25 17.2687 8.92031 17.2687 9.75C17.2687 10.5797 16.5984 11.25 15.7687 11.25Z" fill="black"/>
</svg>
